P3
# The P3 means colors are in ASCII, then 3 columns and 2 rows, then 255 for max color, then RGB triplets
13 100
255
255 255 0
255 255 255
255 255 255
255 255 255
255 255 255
255 255 255
255 255 255
255 255 255
255 255 255
255 255 255
255 255 255
255 255 255
255 255 255
255 255 0
255 69 0
255 255 255
255 255 255
255 255 255
255 255 255
255 255 255
255 255 255
255 255 255
255 255 255
255 255 255
255 255 255
255 255 255
255 69 0
255 69 0
255 255 255
255 255 255
255 255 255
255 255 255
255 255 255
255 255 255
255 255 255
255 255 255
255 255 255
255 255 255
255 255 255
255 255 0
255 69 0
255 69 0
255 255 255
255 255 255
255 255 255
255 255 255
255 255 255
255 255 255
255 255 255
255 255 255
255 255 255
255 255 255
255 69 0
255 69 0
255 69 0
255 255 255
255 255 255
255 255 255
255 255 255
255 255 255
255 255 255
255 255 255
255 255 255
255 255 255
255 255 255
255 69 0
255 255 255
255 69 0
255 255 255
255 255 255
255 255 255
255 255 255
255 255 255
255 255 255
255 255 255
255 255 255
255 255 255
255 255 255
255 69 0
255 255 255
255 255 0
255 255 255
255 255 255
255 255 255
255 255 255
255 255 255
255 255 255
255 255 255
255 255 255
255 255 255
255 255 255
255 69 0
255 255 0
255 255 0
255 255 255
255 255 255
255 255 255
255 255 255
255 255 255
255 255 255
255 255 255
255 255 255
255 255 255
255 255 255
255 69 0
255 255 0
255 69 0
255 255 255
255 255 255
255 255 255
255 255 255
255 255 255
255 255 255
255 255 255
255 255 255
255 255 255
255 255 255
255 69 0
255 255 0
255 69 0
255 69 0
255 255 255
255 255 255
255 255 255
255 255 255
255 255 255
255 255 255
255 255 255
255 255 255
255 255 255
255 69 0
255 255 0
255 255 0
255 69 0
255 255 255
255 255 255
255 255 255
255 255 255
255 255 255
255 255 255
255 255 255
255 255 255
255 255 255
255 69 0
255 69 0
255 255 0
255 69 0
255 255 255
255 255 255
255 255 255
255 255 255
255 255 255
255 255 255
255 255 255
255 255 255
255 255 255
255 255 0
255 69 0
255 255 0
255 69 0
255 255 255
255 255 255
255 255 255
255 255 255
255 255 255
255 255 255
255 255 255
255 255 255
255 255 255
255 255 0
255 255 0
255 69 0
255 255 0
255 69 0
255 255 255
255 255 255
255 255 255
255 255 255
255 255 255
255 255 255
255 255 255
255 255 255
255 69 0
255 255 0
255 69 0
255 255 0
255 69 0
255 255 255
255 255 255
255 255 255
255 255 255
255 255 255
255 255 255
255 255 255
255 255 255
255 69 0
255 69 0
255 69 0
255 255 0
255 69 0
255 255 255
255 255 255
255 255 255
255 255 255
255 255 255
255 255 255
255 255 255
255 255 255
255 69 0
255 69 0
255 255 255
255 255 0
255 69 0
255 255 255
255 255 255
255 255 255
255 255 255
255 255 255
255 255 255
255 255 255
255 255 255
255 69 0
255 69 0
255 255 255
255 69 0
255 69 0
255 255 255
255 255 255
255 255 255
255 255 255
255 255 255
255 255 255
255 255 255
255 255 255
255 69 0
255 69 0
255 255 0
255 69 0
255 69 0
255 255 255
255 255 255
255 255 255
255 255 255
255 255 255
255 255 255
255 255 255
255 255 255
255 69 0
255 69 0
255 255 0
255 255 255
255 69 0
255 255 255
255 255 255
255 255 255
255 255 255
255 255 255
255 255 255
255 255 255
255 255 255
255 69 0
255 69 0
255 255 0
255 255 255
255 255 0
255 255 255
255 255 255
255 255 255
255 255 255
255 255 255
255 255 255
255 255 255
255 255 255
255 69 0
255 69 0
255 255 0
255 255 0
255 255 0
255 255 255
255 255 255
255 255 255
255 255 255
255 255 255
255 255 255
255 255 255
255 255 255
255 69 0
255 69 0
255 255 0
255 255 0
255 69 0
255 255 255
255 255 255
255 255 255
255 255 255
255 255 255
255 255 255
255 255 255
255 255 255
255 69 0
255 69 0
255 255 0
255 255 0
255 69 0
255 69 0
255 255 255
255 255 255
255 255 255
255 255 255
255 255 255
255 255 255
255 255 255
255 69 0
255 69 0
255 255 0
255 255 0
255 255 0
255 69 0
255 255 255
255 255 255
255 255 255
255 255 255
255 255 255
255 255 255
255 255 255
255 69 0
255 69 0
255 255 0
255 69 0
255 255 0
255 69 0
255 255 255
255 255 255
255 255 255
255 255 255
255 255 255
255 255 255
255 255 255
255 69 0
255 69 0
255 69 0
255 69 0
255 255 0
255 69 0
255 255 255
255 255 255
255 255 255
255 255 255
255 255 255
255 255 255
255 255 255
255 69 0
255 255 0
255 69 0
255 69 0
255 255 0
255 69 0
255 255 255
255 255 255
255 255 255
255 255 255
255 255 255
255 255 255
255 255 255
255 255 0
255 255 0
255 69 0
255 69 0
255 255 0
255 69 0
255 255 255
255 255 255
255 255 255
255 255 255
255 255 255
255 255 255
255 255 255
255 255 0
255 255 0
255 255 0
255 69 0
255 69 0
255 255 0
255 69 0
255 255 255
255 255 255
255 255 255
255 255 255
255 255 255
255 255 255
255 69 0
255 255 0
255 255 0
255 69 0
255 69 0
255 255 0
255 69 0
255 255 255
255 255 255
255 255 255
255 255 255
255 255 255
255 255 255
255 69 0
255 69 0
255 255 0
255 69 0
255 69 0
255 255 0
255 69 0
255 255 255
255 255 255
255 255 255
255 255 255
255 255 255
255 255 255
255 69 0
255 69 0
255 69 0
255 69 0
255 69 0
255 255 0
255 69 0
255 255 255
255 255 255
255 255 255
255 255 255
255 255 255
255 255 255
255 69 0
255 69 0
255 69 0
255 255 255
255 69 0
255 255 0
255 69 0
255 255 255
255 255 255
255 255 255
255 255 255
255 255 255
255 255 255
255 69 0
255 69 0
255 69 0
255 255 255
255 255 0
255 255 0
255 69 0
255 255 255
255 255 255
255 255 255
255 255 255
255 255 255
255 255 255
255 69 0
255 69 0
255 69 0
255 255 0
255 255 0
255 255 0
255 69 0
255 255 255
255 255 255
255 255 255
255 255 255
255 255 255
255 255 255
255 69 0
255 69 0
255 69 0
255 255 0
255 69 0
255 255 0
255 69 0
255 255 255
255 255 255
255 255 255
255 255 255
255 255 255
255 255 255
255 69 0
255 69 0
255 69 0
255 255 0
255 69 0
255 69 0
255 69 0
255 255 255
255 255 255
255 255 255
255 255 255
255 255 255
255 255 255
255 69 0
255 69 0
255 69 0
255 255 0
255 69 0
255 69 0
255 255 255
255 255 255
255 255 255
255 255 255
255 255 255
255 255 255
255 255 255
255 69 0
255 69 0
255 69 0
255 255 0
255 69 0
255 69 0
255 255 255
255 255 0
255 255 255
255 255 255
255 255 255
255 255 255
255 255 255
255 69 0
255 69 0
255 69 0
255 255 0
255 69 0
255 69 0
255 255 255
255 255 0
255 69 0
255 255 255
255 255 255
255 255 255
255 255 255
255 69 0
255 69 0
255 69 0
255 255 0
255 69 0
255 69 0
255 255 255
255 69 0
255 69 0
255 255 255
255 255 255
255 255 255
255 255 255
255 69 0
255 69 0
255 69 0
255 255 0
255 69 0
255 69 0
255 255 0
255 69 0
255 69 0
255 255 255
255 255 255
255 255 255
255 255 255
255 69 0
255 69 0
255 69 0
255 255 0
255 69 0
255 69 0
255 255 0
255 255 255
255 69 0
255 255 255
255 255 255
255 255 255
255 255 255
255 69 0
255 69 0
255 69 0
255 255 0
255 69 0
255 69 0
255 255 0
255 255 255
255 255 0
255 255 255
255 255 255
255 255 255
255 255 255
255 69 0
255 69 0
255 69 0
255 255 0
255 69 0
255 69 0
255 255 0
255 255 0
255 255 0
255 255 255
255 255 255
255 255 255
255 255 255
255 69 0
255 69 0
255 69 0
255 255 0
255 69 0
255 69 0
255 255 0
255 255 0
255 69 0
255 255 255
255 255 255
255 255 255
255 255 255
255 69 0
255 69 0
255 69 0
255 255 0
255 69 0
255 69 0
255 255 0
255 255 0
255 69 0
255 69 0
255 255 255
255 255 255
255 255 255
255 69 0
255 69 0
255 69 0
255 255 0
255 69 0
255 69 0
255 255 0
255 255 0
255 255 0
255 69 0
255 255 255
255 255 255
255 255 255
255 69 0
255 69 0
255 69 0
255 255 0
255 69 0
255 69 0
255 255 0
255 69 0
255 255 0
255 69 0
255 255 255
255 255 255
255 255 255
255 69 0
255 69 0
255 69 0
255 255 0
255 69 0
255 69 0
255 69 0
255 69 0
255 255 0
255 69 0
255 255 255
255 255 255
255 255 255
255 69 0
255 69 0
255 69 0
255 255 0
255 69 0
255 255 0
255 69 0
255 69 0
255 255 0
255 69 0
255 255 255
255 255 255
255 255 255
255 69 0
255 69 0
255 69 0
255 255 0
255 255 0
255 255 0
255 69 0
255 69 0
255 255 0
255 69 0
255 255 255
255 255 255
255 255 255
255 69 0
255 69 0
255 69 0
255 69 0
255 255 0
255 255 0
255 69 0
255 69 0
255 255 0
255 69 0
255 255 255
255 255 255
255 255 255
255 69 0
255 69 0
255 255 0
255 69 0
255 255 0
255 255 0
255 69 0
255 69 0
255 255 0
255 69 0
255 255 255
255 255 255
255 255 255
255 69 0
255 255 0
255 255 0
255 69 0
255 255 0
255 255 0
255 69 0
255 69 0
255 255 0
255 69 0
255 255 255
255 255 255
255 255 255
255 255 0
255 255 0
255 255 0
255 69 0
255 255 0
255 255 0
255 69 0
255 69 0
255 255 0
255 69 0
255 255 255
255 255 255
255 255 255
255 255 0
255 255 0
255 255 0
255 255 0
255 69 0
255 255 0
255 255 0
255 69 0
255 69 0
255 255 0
255 69 0
255 255 255
255 255 255
255 69 0
255 255 0
255 255 0
255 255 0
255 69 0
255 255 0
255 255 0
255 69 0
255 69 0
255 255 0
255 69 0
255 255 255
255 255 255
255 69 0
255 69 0
255 255 0
255 255 0
255 69 0
255 255 0
255 255 0
255 69 0
255 69 0
255 255 0
255 69 0
255 255 255
255 255 255
255 69 0
255 69 0
255 69 0
255 255 0
255 69 0
255 255 0
255 255 0
255 69 0
255 69 0
255 255 0
255 69 0
255 255 255
255 255 255
255 69 0
255 69 0
255 69 0
255 69 0
255 69 0
255 255 0
255 255 0
255 69 0
255 69 0
255 255 0
255 69 0
255 255 255
255 255 255
255 69 0
255 69 0
255 69 0
255 69 0
255 255 255
255 255 0
255 255 0
255 69 0
255 69 0
255 255 0
255 69 0
255 255 255
255 255 255
255 69 0
255 69 0
255 69 0
255 69 0
255 255 255
255 69 0
255 255 0
255 69 0
255 69 0
255 255 0
255 69 0
255 255 255
255 255 255
255 69 0
255 69 0
255 69 0
255 69 0
255 255 0
255 69 0
255 255 0
255 69 0
255 69 0
255 255 0
255 69 0
255 255 255
255 255 255
255 69 0
255 69 0
255 69 0
255 69 0
255 255 0
255 255 255
255 255 0
255 69 0
255 69 0
255 255 0
255 69 0
255 255 255
255 255 255
255 69 0
255 69 0
255 69 0
255 69 0
255 255 0
255 255 255
255 69 0
255 69 0
255 69 0
255 255 0
255 69 0
255 255 255
255 255 255
255 69 0
255 69 0
255 69 0
255 69 0
255 255 0
255 255 0
255 69 0
255 69 0
255 69 0
255 255 0
255 69 0
255 255 255
255 255 255
255 69 0
255 69 0
255 69 0
255 69 0
255 255 0
255 255 0
255 255 255
255 69 0
255 69 0
255 255 0
255 69 0
255 255 255
255 255 255
255 69 0
255 69 0
255 69 0
255 69 0
255 255 0
255 255 0
255 255 255
255 255 0
255 69 0
255 255 0
255 69 0
255 255 255
255 255 255
255 69 0
255 69 0
255 69 0
255 69 0
255 255 0
255 255 0
255 255 0
255 255 0
255 69 0
255 255 0
255 69 0
255 255 255
255 255 255
255 69 0
255 69 0
255 69 0
255 69 0
255 255 0
255 255 0
255 255 0
255 69 0
255 69 0
255 255 0
255 69 0
255 255 255
255 255 255
255 69 0
255 69 0
255 69 0
255 69 0
255 255 0
255 255 0
255 255 0
255 69 0
255 255 255
255 255 0
255 69 0
255 255 255
255 255 255
255 69 0
255 69 0
255 69 0
255 69 0
255 255 0
255 255 0
255 255 0
255 69 0
255 255 255
255 69 0
255 69 0
255 255 255
255 255 255
255 69 0
255 69 0
255 69 0
255 69 0
255 255 0
255 255 0
255 255 0
255 69 0
255 255 0
255 69 0
255 69 0
255 255 255
255 255 255
255 69 0
255 69 0
255 69 0
255 69 0
255 255 0
255 255 0
255 255 0
255 69 0
255 255 0
255 255 255
255 69 0
255 255 255
255 255 255
255 69 0
255 69 0
255 69 0
255 69 0
255 255 0
255 255 0
255 255 0
255 69 0
255 255 0
255 255 255
255 255 0
255 255 255
255 255 255
255 69 0
255 69 0
255 69 0
255 69 0
255 255 0
255 255 0
255 255 0
255 69 0
255 255 0
255 255 0
255 255 0
255 255 255
255 255 255
255 69 0
255 69 0
255 69 0
255 69 0
255 255 0
255 255 0
255 255 0
255 69 0
255 255 0
255 255 0
255 69 0
255 255 255
255 255 255
255 69 0
255 69 0
255 69 0
255 69 0
255 255 0
255 255 0
255 255 0
255 69 0
255 255 0
255 255 0
255 69 0
255 69 0
255 255 255
255 69 0
255 69 0
255 69 0
255 69 0
255 255 0
255 255 0
255 255 0
255 69 0
255 255 0
255 255 0
255 255 0
255 69 0
255 255 255
255 69 0
255 69 0
255 69 0
255 69 0
255 255 0
255 255 0
255 255 0
255 69 0
255 255 0
255 69 0
255 255 0
255 69 0
255 255 255
255 69 0
255 69 0
255 69 0
255 69 0
255 255 0
255 255 0
255 255 0
255 69 0
255 69 0
255 69 0
255 255 0
255 69 0
255 255 255
255 69 0
255 69 0
255 69 0
255 69 0
255 255 0
255 255 0
255 255 0
255 255 0
255 69 0
255 69 0
255 255 0
255 69 0
255 255 255
255 69 0
255 69 0
255 69 0
255 69 0
255 255 0
255 255 0
255 69 0
255 255 0
255 69 0
255 69 0
255 255 0
255 69 0
255 255 255
255 69 0
255 69 0
255 69 0
255 69 0
255 255 0
255 69 0
255 69 0
255 255 0
255 69 0
255 69 0
255 255 0
255 69 0
255 255 255
255 69 0
255 69 0
255 69 0
255 69 0
255 69 0
255 69 0
255 69 0
255 255 0
255 69 0
255 69 0
255 255 0
255 69 0
255 255 255
255 69 0
255 69 0
255 69 0
255 255 0
255 69 0
255 69 0
255 69 0
255 255 0
255 69 0
255 69 0
255 255 0
255 69 0
255 255 255
255 69 0
255 69 0
255 255 0
255 255 0
255 69 0
255 69 0
255 69 0
255 255 0
255 69 0
255 69 0
255 255 0
255 69 0
255 255 255
255 69 0
255 255 0
255 255 0
255 255 0
255 69 0
255 69 0
255 69 0
255 255 0
255 69 0
255 69 0
255 255 0
255 69 0
255 255 255
255 255 0
255 255 0
255 255 0
255 255 0
255 69 0
255 69 0
255 69 0
255 255 0
255 69 0
255 69 0
255 255 0
255 69 0
255 255 255
255 255 0
255 255 0
255 255 0
255 255 0
255 255 0
255 69 0
255 69 0
255 69 0
255 255 0
255 69 0
255 69 0
255 255 0
255 69 0
255 69 0
255 255 0
255 255 0
255 255 0
255 255 0
255 69 0
255 69 0
255 69 0
255 255 0
255 69 0
255 69 0
255 255 0
255 69 0
255 69 0
255 69 0
255 255 0
255 255 0
255 255 0
255 69 0
255 69 0
255 69 0
255 255 0
255 69 0
255 69 0
255 255 0
255 69 0
255 69 0
255 69 0
255 69 0
255 255 0
255 255 0
255 69 0
255 69 0
255 69 0
255 255 0
255 69 0
255 69 0
255 255 0
255 69 0
255 69 0
255 69 0
255 69 0
255 69 0
255 255 0
255 69 0
255 69 0
255 69 0
255 255 0
255 69 0
255 69 0
255 255 0
255 69 0
255 69 0
255 69 0
255 69 0
255 69 0
255 69 0
255 69 0
255 69 0
255 69 0
255 255 0
255 69 0
255 69 0
255 255 0
255 69 0
255 69 0
255 69 0
255 69 0
255 69 0
255 69 0
255 255 255
255 69 0
255 69 0
255 255 0
255 69 0
255 69 0
255 255 0
255 69 0
255 69 0
255 69 0
255 69 0
255 69 0
255 69 0
255 255 255
255 255 0
255 69 0
255 255 0
255 69 0
255 69 0
255 255 0
255 69 0
255 69 0
255 69 0
255 69 0
255 69 0
255 69 0
255 255 0
255 255 0
255 69 0
255 255 0
255 69 0
255 69 0
255 255 0
255 69 0

